<?xml version="1.0" encoding="utf-8"?>
<!-- Generator: Adobe Illustrator 18.0.0, SVG Export Plug-In . SVG Version: 6.00 Build 0)  -->
<!DOCTYPE svg PUBLIC "-//W3C//DTD SVG 1.1//EN" "http://www.w3.org/Graphics/SVG/1.1/DTD/svg11.dtd">
<svg version="1.1" id="Laag_1" xmlns="http://www.w3.org/2000/svg" xmlns:xlink="http://www.w3.org/1999/xlink" x="0px" y="0px"
	 viewBox="-10 -10 1220 1220" enable-background="new -10 -10 1220 1220" xml:space="preserve">
<g id="XMLID_1_">
	<g>
		<circle fill="#128DD4" cx="600" cy="600" r="595"/>
	</g>
	<g>
		<circle fill="none" stroke="#FFFFFF" stroke-width="14" stroke-miterlimit="10" cx="600" cy="600" r="595"/>
	</g>
</g>
<g>
	<path fill="none" stroke="#FFFFFF" stroke-width="35" stroke-miterlimit="10" d="M810.4,962.1H313.2c-6.5,0-11.9-5.4-11.9-11.9
		V238.8c0-6.5,5.4-11.9,11.9-11.9h497.2c6.5,0,11.9,5.4,11.9,11.9v711.5C822.3,956.8,817,962.1,810.4,962.1z"/>
	<line fill="none" stroke="#FFFFFF" stroke-width="35" stroke-miterlimit="10" x1="370.7" y1="326.3" x2="618.6" y2="324.9"/>
	<line fill="none" stroke="#FFFFFF" stroke-width="35" stroke-miterlimit="10" x1="370.7" y1="425.5" x2="683.1" y2="424"/>
	<line fill="none" stroke="#FFFFFF" stroke-width="35" stroke-miterlimit="10" x1="370.7" y1="524.7" x2="618.6" y2="523.2"/>
	<line fill="none" stroke="#FFFFFF" stroke-width="35" stroke-miterlimit="10" x1="370.9" y1="623.8" x2="683.3" y2="623.8"/>
	<line fill="none" stroke="#FFFFFF" stroke-width="35" stroke-miterlimit="10" x1="370.7" y1="723" x2="618.6" y2="721.5"/>
	<circle fill="#FFFFFF" stroke="#FFFFFF" stroke-miterlimit="10" cx="405.9" cy="821.5" r="35.2"/>
	<circle fill="#FFFFFF" stroke="#FFFFFF" stroke-miterlimit="10" cx="515" cy="821.5" r="35.2"/>
	<line fill="none" stroke="#128DD4" stroke-width="75" stroke-miterlimit="10" x1="911.2" y1="411.5" x2="683.1" y2="849.7"/>
	<line fill="none" stroke="#FFFFFF" stroke-width="40" stroke-miterlimit="10" x1="683.1" y1="849.7" x2="911.2" y2="411.5"/>
	<line fill="none" stroke="#FFFFFF" stroke-width="40" stroke-miterlimit="10" x1="938.2" y1="358.4" x2="914.9" y2="403.1"/>
	<g>
		<line fill="none" x1="683.2" y1="849.5" x2="657.3" y2="899.3"/>
		<polygon fill="#FFFFFF" points="700.8,858.6 657.3,899.3 665.6,840.4 		"/>
	</g>
</g>
</svg>
